<!--?xml version="1.0" encoding="utf-8"?-->
<!-- Generator: Adobe Illustrator 18.0.0, SVG Export Plug-In . SVG Version: 6.00 Build 0)  -->

<svg version="1.1" id="_x32_" xmlns="http://www.w3.org/2000/svg" xmlns:xlink="http://www.w3.org/1999/xlink" x="0px" y="0px" viewBox="0 0 512 512" style="width: 32px; height: 32px; opacity: 1;" xml:space="preserve">
<style type="text/css">
	.st0{fill:#4B4B4B;}
</style><style class="darkreader darkreader--sync" media="screen"></style>
<g>
	<polygon class="st0" points="291.771,110.167 295.565,87.798 317.926,83.831 348.341,114.148 383.214,149.019 370.179,162.28 
		357.031,175.428 	" style="fill: rgb(75, 75, 75); --darkreader-inline-fill: #fffffd;" data-darkreader-inline-fill=""></polygon>
	<polygon class="st0" points="357.031,175.201 370.064,162.166 383.099,149.132 348.226,114.262 317.952,83.988 295.721,87.825 
		291.884,110.054 322.158,140.331 	" style="fill: rgb(75, 75, 75); --darkreader-inline-fill: #fffffd;" data-darkreader-inline-fill=""></polygon>
	<polygon class="st0" points="253.107,148.832 256.902,126.46 279.263,122.492 309.678,152.81 344.546,187.685 331.516,200.945 
		318.367,214.093 	" style="fill: rgb(75, 75, 75); --darkreader-inline-fill: #fffffd;" data-darkreader-inline-fill=""></polygon>
	<polygon class="st0" points="331.401,200.832 344.435,187.798 309.562,152.924 279.288,122.65 257.057,126.487 253.22,148.72 
		283.494,178.993 318.367,213.867 	" style="fill: rgb(75, 75, 75); --darkreader-inline-fill: #fffffd;" data-darkreader-inline-fill=""></polygon>
	<polygon class="st0" points="214.444,187.495 218.238,165.126 240.596,161.158 271.01,191.476 305.883,226.347 292.852,239.608 
		279.704,252.756 	" style="fill: rgb(75, 75, 75); --darkreader-inline-fill: #fffffd;" data-darkreader-inline-fill=""></polygon>
	<polygon class="st0" points="292.737,239.494 305.771,226.46 270.899,191.589 240.624,161.316 218.393,165.153 214.556,187.382 
		244.83,217.655 279.703,252.529 	" style="fill: rgb(75, 75, 75); --darkreader-inline-fill: #fffffd;" data-darkreader-inline-fill=""></polygon>
	<polygon class="st0" points="175.781,226.16 179.571,203.788 201.932,199.82 232.347,230.138 267.22,265.012 254.185,278.273 
		241.041,291.421 	" style="fill: rgb(75, 75, 75); --darkreader-inline-fill: #fffffd;" data-darkreader-inline-fill=""></polygon>
	<polygon class="st0" points="201.96,199.978 179.729,203.815 175.892,226.048 206.166,256.321 241.039,291.195 254.073,278.16 
		267.108,265.126 232.235,230.251 	" style="fill: rgb(75, 75, 75); --darkreader-inline-fill: #fffffd;" data-darkreader-inline-fill=""></polygon>
	<path class="st0" d="M114.979,512c-2.471,0-4.79-0.956-6.523-2.691l-22.424-22.424c-3.603-3.604-3.611-9.463-0.016-13.059
		l310.896-310.892l29.072,28.846c3.596,3.596,3.588,9.454-0.016,13.058l-304.47,304.471C119.765,511.044,117.446,512,114.979,512z" style="fill: rgb(75, 75, 75); --darkreader-inline-fill: #fffffd;" data-darkreader-inline-fill=""></path>
	<path class="st0" d="M425.872,191.893l-28.849-28.846L86.129,473.94c-3.526,3.526-3.51,9.307,0.015,12.832l22.426,22.424
		c3.526,3.526,9.289,3.526,12.815,0l304.472-304.471C429.382,201.2,429.398,195.418,425.872,191.893z" style="fill: rgb(75, 75, 75); --darkreader-inline-fill: #fffffd;" data-darkreader-inline-fill=""></path>
	<path class="st0" d="M134.053,200.078c-17.079-1.028-31.028-14.672-32.452-31.738c-2.12-25.313,5.766-49.96,22.209-69.4
		c16.443-19.443,39.436-31.319,64.749-33.439c6.867-0.574,13.105-3.798,17.571-9.078c4.462-5.28,6.605-11.97,6.028-18.838
		c-0.773-9.237,2.096-18.219,8.077-25.291C226.218,5.215,234.6,0.892,243.832,0.12c0.98-0.083,1.956-0.12,2.924-0.12
		c17.879,0,33.05,13.968,34.537,31.798c2.12,25.313-5.766,49.96-22.209,69.4c-16.431,19.442-39.424,31.318-64.741,33.439
		c-14.202,1.188-24.793,13.711-23.606,27.916c0.777,9.229-2.092,18.211-8.077,25.29c-5.984,7.079-14.366,11.402-23.595,12.173
		c-0.988,0.083-1.964,0.12-2.928,0.12C135.435,200.138,134.74,200.119,134.053,200.078z M158.994,92.417
		c-2.577,0-5.102,0.892-7.113,2.512c-4.907,3.951-9.467,8.404-13.554,13.235c-4.072,4.811-7.702,10.045-10.79,15.558
		c-3.119,5.555-5.707,11.437-7.69,17.484c-0.945,2.88-0.71,5.957,0.66,8.662c1.37,2.706,3.708,4.715,6.59,5.658
		c1.155,0.377,2.346,0.569,3.541,0.569c4.919,0,9.252-3.142,10.778-7.818c1.518-4.634,3.509-9.16,5.914-13.449
		c2.397-4.266,5.2-8.306,8.331-12.007c3.15-3.726,6.672-7.162,10.458-10.212c4.876-3.924,5.645-11.084,1.722-15.961
		C165.674,93.959,162.453,92.417,158.994,92.417z" style="fill: rgb(75, 75, 75); --darkreader-inline-fill: #fffffd;" data-darkreader-inline-fill=""></path>
	<path class="st0" d="M134.061,199.918c0.686,0.041,1.379,0.06,2.076,0.06c0.963,0,1.933-0.037,2.915-0.12
		c9.191-0.768,17.531-5.073,23.488-12.117c5.954-7.044,8.809-15.984,8.037-25.174c-1.195-14.29,9.46-26.894,23.754-28.089
		c25.268-2.117,48.224-13.971,64.634-33.383c16.414-19.412,24.286-44.02,22.169-69.284c-1.48-17.748-16.583-31.652-34.38-31.652
		c-0.963,0-1.933,0.037-2.911,0.12c-9.19,0.768-17.531,5.073-23.488,12.117c-5.953,7.04-8.808,15.984-8.036,25.174
		c1.195,14.29-9.46,26.894-23.75,28.089c-25.268,2.117-48.224,13.972-64.638,33.383c-16.414,19.412-24.286,44.02-22.169,69.284
		C103.177,185.314,117.066,198.895,134.061,199.918z M119.696,141.155c1.982-6.047,4.571-11.937,7.7-17.512
		c3.094-5.515,6.729-10.757,10.809-15.582c4.099-4.845,8.666-9.303,13.574-13.256c4.953-3.99,12.199-3.207,16.186,1.742
		c3.987,4.953,3.204,12.199-1.746,16.186c-3.773,3.038-7.288,6.467-10.438,10.191c-3.132,3.706-5.931,7.741-8.31,11.982
		c-2.398,4.275-4.384,8.79-5.901,13.421c-1.589,4.852-6.096,7.928-10.933,7.928c-1.192,0-2.398-0.188-3.59-0.577
		C121.008,153.699,117.714,147.195,119.696,141.155z" style="fill: rgb(75, 75, 75); --darkreader-inline-fill: #fffffd;" data-darkreader-inline-fill=""></path>
</g>
</svg>
